<svg xmlns="http://www.w3.org/2000/svg" viewBox="0 0 512 512"><defs><linearGradient id="bg" x1="0" y1="0" x2="1" y2="1"><stop stop-color="#f8ddea"/><stop offset="1" stop-color="#f7eee9"/></linearGradient><linearGradient id="cup" x1="0" y1="0" x2="1" y2="1"><stop stop-color="#fff"/><stop offset="1" stop-color="#ead9d2"/></linearGradient></defs><rect width="512" height="512" rx="112" fill="url(#bg)"/><circle cx="256" cy="270" r="170" fill="#fff" opacity=".48"/><path d="M142 210h228l-20 174c-4 36-31 62-67 62h-54c-36 0-63-26-67-62z" fill="url(#cup)"/><path d="M370 250h35c39 0 57 22 57 54s-18 54-57 54h-30" fill="none" stroke="#684b43" stroke-width="24" stroke-linecap="round"/><path d="M151 210h214c-10-39-48-67-107-67s-97 28-107 67z" fill="#684b43"/><path d="M180 194c18-30 45-40 76-40s58 10 76 40" fill="none" stroke="#fff" stroke-width="12" stroke-linecap="round" opacity=".7"/><path d="M204 139c-13-28 15-37 1-65M256 130c-13-28 15-37 1-65M308 139c-13-28 15-37 1-65" fill="none" stroke="#c08c82" stroke-width="10" stroke-linecap="round" opacity=".7"/><path d="M116 350c23 2 35 14 35 34 0 20-12 32-35 34-23-2-35-14-35-34 0-20 12-32 35-34z" fill="#e94d67"/><path d="M116 350c-5-20 8-31 22-37 12 13 10 28-2 39" fill="#5f9b61"/><g fill="#fff3d9"><circle cx="105" cy="369" r="3"/><circle cx="126" cy="361" r="3"/><circle cx="128" cy="382" r="3"/><circle cx="108" cy="391" r="3"/></g><path d="M370 108l8 19 20 8-20 8-8 20-8-20-20-8 20-8z" fill="#d7a64b"/><path d="M399 150l5 12 13 5-13 5-5 13-5-13-13-5 13-5z" fill="#d7a64b"/></svg>